<?xml version="1.0" encoding="UTF-8" standalone="no"?>
<!-- Created with Inkscape (http://www.inkscape.org/) -->

<svg
   width="210mm"
   height="297mm"
   viewBox="0 0 210 297"
   version="1.1"
   id="svg5"
   inkscape:version="1.2.2 (732a01da63, 2022-12-09)"
   sodipodi:docname="kresba.svg"
   xmlns:inkscape="http://www.inkscape.org/namespaces/inkscape"
   xmlns:sodipodi="http://sodipodi.sourceforge.net/DTD/sodipodi-0.dtd"
   xmlns="http://www.w3.org/2000/svg"
   xmlns:svg="http://www.w3.org/2000/svg">
  <sodipodi:namedview
     id="namedview7"
     pagecolor="#ffffff"
     bordercolor="#000000"
     borderopacity="0.25"
     inkscape:showpageshadow="2"
     inkscape:pageopacity="0.0"
     inkscape:pagecheckerboard="0"
     inkscape:deskcolor="#d1d1d1"
     inkscape:document-units="mm"
     showgrid="false"
     inkscape:zoom="0.72515432"
     inkscape:cx="486.10343"
     inkscape:cy="451.62801"
     inkscape:window-width="1920"
     inkscape:window-height="1001"
     inkscape:window-x="-9"
     inkscape:window-y="-9"
     inkscape:window-maximized="1"
     inkscape:current-layer="layer1" />
  <defs
     id="defs2" />
  <g
     inkscape:label="Vrstva 1"
     inkscape:groupmode="layer"
     id="layer1">
    <g
       id="g5207"
       transform="matrix(1.2292432,0,0,1.6779492,-48.132614,-68.587652)">
      <g
         id="g3588"
         style="fill:#0432ae;fill-opacity:1">
        <ellipse
           style="fill:#ff7f2a;fill-opacity:1;stroke:#000000;stroke-width:0.140354"
           id="use3558"
           cx="186.70007"
           cy="193.80063"
           rx="7.698411"
           ry="7.9768634"
           inkscape:tile-x0="66.273119"
           inkscape:tile-y0="143.98933" />
        <ellipse
           style="fill:#ff7f2a;fill-opacity:1;stroke:#000000;stroke-width:0.140354"
           id="use3560"
           cx="186.70007"
           cy="209.9008"
           rx="7.698411"
           ry="7.9768634"
           inkscape:tile-x0="66.273119"
           inkscape:tile-y0="143.98933" />
        <ellipse
           style="fill:#ff7f2a;fill-opacity:1;stroke:#000000;stroke-width:0.140354"
           id="use3580"
           cx="202.23141"
           cy="193.80063"
           rx="7.698411"
           ry="7.9768634"
           inkscape:tile-x0="66.273119"
           inkscape:tile-y0="143.98933" />
        <ellipse
           style="fill:#ff7f2a;fill-opacity:1;stroke:#000000;stroke-width:0.140354"
           id="use3582"
           cx="202.23141"
           cy="209.9008"
           rx="7.698411"
           ry="7.9768634"
           inkscape:tile-x0="66.273119"
           inkscape:tile-y0="143.98933" />
      </g>
      <ellipse
         style="fill:#ff7f2a;fill-opacity:1;stroke:#000000;stroke-width:0.140354"
         id="path3340"
         cx="46.918003"
         cy="48.899113"
         rx="7.698411"
         ry="7.9768634"
         inkscape:tile-cx="81.5473"
         inkscape:tile-cy="158.53378"
         inkscape:tile-w="30.548363"
         inkscape:tile-h="29.088906"
         inkscape:tile-x0="66.273119"
         inkscape:tile-y0="143.98933" />
      <ellipse
         style="fill:#ff7f2a;fill-opacity:1;stroke:#000000;stroke-width:0.140354"
         id="use3342"
         cx="46.918003"
         cy="48.899113"
         rx="7.698411"
         ry="7.9768634"
         inkscape:tile-x0="66.273119"
         inkscape:tile-y0="143.98933" />
      <ellipse
         style="fill:#ff7f2a;fill-opacity:1;stroke:#000000;stroke-width:0.140354"
         id="use3344"
         cx="46.918003"
         cy="64.999283"
         rx="7.698411"
         ry="7.9768634"
         inkscape:tile-x0="66.273119"
         inkscape:tile-y0="143.98933" />
      <ellipse
         style="fill:#ff7f2a;fill-opacity:1;stroke:#000000;stroke-width:0.140354"
         id="use3348"
         cx="46.918003"
         cy="97.199615"
         rx="7.698411"
         ry="7.9768634"
         inkscape:tile-x0="66.273119"
         inkscape:tile-y0="143.98933" />
      <ellipse
         style="fill:#ff7f2a;fill-opacity:1;stroke:#000000;stroke-width:0.140354"
         id="use3350"
         cx="46.918003"
         cy="113.29978"
         rx="7.698411"
         ry="7.9768634"
         inkscape:tile-x0="66.273119"
         inkscape:tile-y0="143.98933" />
      <ellipse
         style="fill:#ff7f2a;fill-opacity:1;stroke:#000000;stroke-width:0.140354"
         id="use3352"
         cx="46.918003"
         cy="129.39995"
         rx="7.698411"
         ry="7.9768634"
         inkscape:tile-x0="66.273119"
         inkscape:tile-y0="143.98933" />
      <ellipse
         style="fill:#ff7f2a;fill-opacity:1;stroke:#000000;stroke-width:0.140354"
         id="use3354"
         cx="46.918003"
         cy="145.50012"
         rx="7.698411"
         ry="7.9768634"
         inkscape:tile-x0="66.273119"
         inkscape:tile-y0="143.98933" />
      <ellipse
         style="fill:#ff7f2a;fill-opacity:1;stroke:#000000;stroke-width:0.140354"
         id="use3356"
         cx="46.918003"
         cy="161.6003"
         rx="7.698411"
         ry="7.9768634"
         inkscape:tile-x0="66.273119"
         inkscape:tile-y0="143.98933" />
      <ellipse
         style="fill:#ff7f2a;fill-opacity:1;stroke:#000000;stroke-width:0.140354"
         id="use3360"
         cx="46.918003"
         cy="193.80063"
         rx="7.698411"
         ry="7.9768634"
         inkscape:tile-x0="66.273119"
         inkscape:tile-y0="143.98933" />
      <ellipse
         style="fill:#ff7f2a;fill-opacity:1;stroke:#000000;stroke-width:0.140354"
         id="use3362"
         cx="46.918003"
         cy="209.9008"
         rx="7.698411"
         ry="7.9768634"
         inkscape:tile-x0="66.273119"
         inkscape:tile-y0="143.98933" />
      <ellipse
         style="fill:#ff7f2a;fill-opacity:1;stroke:#000000;stroke-width:0.140354"
         id="use3364"
         cx="62.449345"
         cy="48.899113"
         rx="7.698411"
         ry="7.9768634"
         inkscape:tile-x0="66.273119"
         inkscape:tile-y0="143.98933" />
      <ellipse
         style="fill:#ff7f2a;fill-opacity:1;stroke:#000000;stroke-width:0.140354"
         id="use3366"
         cx="62.449345"
         cy="64.999283"
         rx="7.698411"
         ry="7.9768634"
         inkscape:tile-x0="66.273119"
         inkscape:tile-y0="143.98933" />
      <ellipse
         style="fill:#ff7f2a;fill-opacity:1;stroke:#000000;stroke-width:0.140354"
         id="use3370"
         cx="62.449345"
         cy="97.199615"
         rx="7.698411"
         ry="7.9768634"
         inkscape:tile-x0="66.273119"
         inkscape:tile-y0="143.98933" />
      <ellipse
         style="fill:#ff7f2a;fill-opacity:1;stroke:#000000;stroke-width:0.140354"
         id="use3374"
         cx="62.449345"
         cy="129.39995"
         rx="7.698411"
         ry="7.9768634"
         inkscape:tile-x0="66.273119"
         inkscape:tile-y0="143.98933" />
      <ellipse
         style="fill:#ff7f2a;fill-opacity:1;stroke:#000000;stroke-width:0.140354"
         id="use3378"
         cx="62.449345"
         cy="161.6003"
         rx="7.698411"
         ry="7.9768634"
         inkscape:tile-x0="66.273119"
         inkscape:tile-y0="143.98933" />
      <ellipse
         style="fill:#ff7f2a;fill-opacity:1;stroke:#000000;stroke-width:0.140354"
         id="use3382"
         cx="62.449345"
         cy="193.80063"
         rx="7.698411"
         ry="7.9768634"
         inkscape:tile-x0="66.273119"
         inkscape:tile-y0="143.98933" />
      <ellipse
         style="fill:#ff7f2a;fill-opacity:1;stroke:#000000;stroke-width:0.140354"
         id="use3384"
         cx="62.449345"
         cy="209.9008"
         rx="7.698411"
         ry="7.9768634"
         inkscape:tile-x0="66.273119"
         inkscape:tile-y0="143.98933" />
      <ellipse
         style="fill:#ff7f2a;fill-opacity:1;stroke:#000000;stroke-width:0.140354"
         id="use3392"
         cx="77.980682"
         cy="97.199615"
         rx="7.698411"
         ry="7.9768634"
         inkscape:tile-x0="66.273119"
         inkscape:tile-y0="143.98933" />
      <ellipse
         style="fill:#ff7f2a;fill-opacity:1;stroke:#000000;stroke-width:0.140354"
         id="use3396"
         cx="77.980682"
         cy="129.39995"
         rx="7.698411"
         ry="7.9768634"
         inkscape:tile-x0="66.273119"
         inkscape:tile-y0="143.98933" />
      <ellipse
         style="fill:#ff7f2a;fill-opacity:1;stroke:#000000;stroke-width:0.140354"
         id="use3400"
         cx="77.980682"
         cy="161.6003"
         rx="7.698411"
         ry="7.9768634"
         inkscape:tile-x0="66.273119"
         inkscape:tile-y0="143.98933" />
      <ellipse
         style="fill:#ff7f2a;fill-opacity:1;stroke:#000000;stroke-width:0.140354"
         id="use3408"
         cx="93.512024"
         cy="48.899113"
         rx="7.698411"
         ry="7.9768634"
         inkscape:tile-x0="66.273119"
         inkscape:tile-y0="143.98933" />
      <ellipse
         style="fill:#ff7f2a;fill-opacity:1;stroke:#000000;stroke-width:0.140354"
         id="use3410"
         cx="93.512024"
         cy="64.999283"
         rx="7.698411"
         ry="7.9768634"
         inkscape:tile-x0="66.273119"
         inkscape:tile-y0="143.98933" />
      <ellipse
         style="fill:#ff7f2a;fill-opacity:1;stroke:#000000;stroke-width:0.140354"
         id="use3412"
         cx="93.512024"
         cy="81.099442"
         rx="7.698411"
         ry="7.9768634"
         inkscape:tile-x0="66.273119"
         inkscape:tile-y0="143.98933" />
      <ellipse
         style="fill:#ff7f2a;fill-opacity:1;stroke:#000000;stroke-width:0.140354"
         id="use3414"
         cx="93.512024"
         cy="97.199615"
         rx="7.698411"
         ry="7.9768634"
         inkscape:tile-x0="66.273119"
         inkscape:tile-y0="143.98933" />
      <ellipse
         style="fill:#ff7f2a;fill-opacity:1;stroke:#000000;stroke-width:0.140354"
         id="use3418"
         cx="93.512024"
         cy="129.39995"
         rx="7.698411"
         ry="7.9768634"
         inkscape:tile-x0="66.273119"
         inkscape:tile-y0="143.98933" />
      <ellipse
         style="fill:#ff7f2a;fill-opacity:1;stroke:#000000;stroke-width:0.140354"
         id="use3422"
         cx="93.512024"
         cy="161.6003"
         rx="7.698411"
         ry="7.9768634"
         inkscape:tile-x0="66.273119"
         inkscape:tile-y0="143.98933" />
      <ellipse
         style="fill:#ff7f2a;fill-opacity:1;stroke:#000000;stroke-width:0.140354"
         id="use3424"
         cx="93.512024"
         cy="177.70047"
         rx="7.698411"
         ry="7.9768634"
         inkscape:tile-x0="66.273119"
         inkscape:tile-y0="143.98933" />
      <ellipse
         style="fill:#ff7f2a;fill-opacity:1;stroke:#000000;stroke-width:0.140354"
         id="use3426"
         cx="93.512024"
         cy="193.80063"
         rx="7.698411"
         ry="7.9768634"
         inkscape:tile-x0="66.273119"
         inkscape:tile-y0="143.98933" />
      <ellipse
         style="fill:#ff7f2a;fill-opacity:1;stroke:#000000;stroke-width:0.140354"
         id="use3428"
         cx="93.512024"
         cy="209.9008"
         rx="7.698411"
         ry="7.9768634"
         inkscape:tile-x0="66.273119"
         inkscape:tile-y0="143.98933" />
      <ellipse
         style="fill:#ff7f2a;fill-opacity:1;stroke:#000000;stroke-width:0.140354"
         id="use3430"
         cx="109.04337"
         cy="48.899113"
         rx="7.698411"
         ry="7.9768634"
         inkscape:tile-x0="66.273119"
         inkscape:tile-y0="143.98933" />
      <ellipse
         style="fill:#ff7f2a;fill-opacity:1;stroke:#000000;stroke-width:0.140354"
         id="use3440"
         cx="109.04337"
         cy="129.39995"
         rx="7.698411"
         ry="7.9768634"
         inkscape:tile-x0="66.273119"
         inkscape:tile-y0="143.98933" />
      <ellipse
         style="fill:#ff7f2a;fill-opacity:1;stroke:#000000;stroke-width:0.140354"
         id="use3450"
         cx="109.04337"
         cy="209.9008"
         rx="7.698411"
         ry="7.9768634"
         inkscape:tile-x0="66.273119"
         inkscape:tile-y0="143.98933" />
      <ellipse
         style="fill:#ff7f2a;fill-opacity:1;stroke:#000000;stroke-width:0.140354"
         id="use3452"
         cx="124.57471"
         cy="48.899113"
         rx="7.698411"
         ry="7.9768634"
         inkscape:tile-x0="66.273119"
         inkscape:tile-y0="143.98933" />
      <ellipse
         style="fill:#ff7f2a;fill-opacity:1;stroke:#000000;stroke-width:0.140354"
         id="use3454"
         cx="124.57471"
         cy="64.999283"
         rx="7.698411"
         ry="7.9768634"
         inkscape:tile-x0="66.273119"
         inkscape:tile-y0="143.98933" />
      <ellipse
         style="fill:#ff7f2a;fill-opacity:1;stroke:#000000;stroke-width:0.140354"
         id="use3456"
         cx="124.57471"
         cy="81.099442"
         rx="7.698411"
         ry="7.9768634"
         inkscape:tile-x0="66.273119"
         inkscape:tile-y0="143.98933" />
      <ellipse
         style="fill:#ff7f2a;fill-opacity:1;stroke:#000000;stroke-width:0.140354"
         id="use3458"
         cx="124.57471"
         cy="97.199615"
         rx="7.698411"
         ry="7.9768634"
         inkscape:tile-x0="66.273119"
         inkscape:tile-y0="143.98933" />
      <ellipse
         style="fill:#ff7f2a;fill-opacity:1;stroke:#000000;stroke-width:0.140354"
         id="use3460"
         cx="124.57471"
         cy="113.29978"
         rx="7.698411"
         ry="7.9768634"
         inkscape:tile-x0="66.273119"
         inkscape:tile-y0="143.98933" />
      <ellipse
         style="fill:#ff7f2a;fill-opacity:1;stroke:#000000;stroke-width:0.140354"
         id="use3464"
         cx="124.57471"
         cy="145.50012"
         rx="7.698411"
         ry="7.9768634"
         inkscape:tile-x0="66.273119"
         inkscape:tile-y0="143.98933" />
      <ellipse
         style="fill:#ff7f2a;fill-opacity:1;stroke:#000000;stroke-width:0.140354"
         id="use3466"
         cx="124.57471"
         cy="161.6003"
         rx="7.698411"
         ry="7.9768634"
         inkscape:tile-x0="66.273119"
         inkscape:tile-y0="143.98933" />
      <ellipse
         style="fill:#ff7f2a;fill-opacity:1;stroke:#000000;stroke-width:0.140354"
         id="use3468"
         cx="124.57471"
         cy="177.70047"
         rx="7.698411"
         ry="7.9768634"
         inkscape:tile-x0="66.273119"
         inkscape:tile-y0="143.98933" />
      <ellipse
         style="fill:#ff7f2a;fill-opacity:1;stroke:#000000;stroke-width:0.140354"
         id="use3470"
         cx="124.57471"
         cy="193.80063"
         rx="7.698411"
         ry="7.9768634"
         inkscape:tile-x0="66.273119"
         inkscape:tile-y0="143.98933" />
      <ellipse
         style="fill:#ff7f2a;fill-opacity:1;stroke:#000000;stroke-width:0.140354"
         id="use3472"
         cx="124.57471"
         cy="209.9008"
         rx="7.698411"
         ry="7.9768634"
         inkscape:tile-x0="66.273119"
         inkscape:tile-y0="143.98933" />
      <ellipse
         style="fill:#ff7f2a;fill-opacity:1;stroke:#000000;stroke-width:0.140354"
         id="use3474"
         cx="140.10605"
         cy="48.899113"
         rx="7.698411"
         ry="7.9768634"
         inkscape:tile-x0="66.273119"
         inkscape:tile-y0="143.98933" />
      <ellipse
         style="fill:#ff7f2a;fill-opacity:1;stroke:#000000;stroke-width:0.140354"
         id="use3484"
         cx="140.11188"
         cy="129.40604"
         rx="7.698411"
         ry="7.9768634"
         inkscape:tile-x0="66.273119"
         inkscape:tile-y0="143.98933" />
      <ellipse
         style="fill:#ff7f2a;fill-opacity:1;stroke:#000000;stroke-width:0.140354"
         id="use3494"
         cx="140.10605"
         cy="209.9008"
         rx="7.698411"
         ry="7.9768634"
         inkscape:tile-x0="66.273119"
         inkscape:tile-y0="143.98933" />
      <ellipse
         style="fill:#ff7f2a;fill-opacity:1;stroke:#000000;stroke-width:0.140354"
         id="use3496"
         cx="155.63739"
         cy="48.899113"
         rx="7.698411"
         ry="7.9768634"
         inkscape:tile-x0="66.273119"
         inkscape:tile-y0="143.98933" />
      <ellipse
         style="fill:#ff7f2a;fill-opacity:1;stroke:#000000;stroke-width:0.140354"
         id="use3498"
         cx="155.63739"
         cy="64.999283"
         rx="7.698411"
         ry="7.9768634"
         inkscape:tile-x0="66.273119"
         inkscape:tile-y0="143.98933" />
      <ellipse
         style="fill:#ff7f2a;fill-opacity:1;stroke:#000000;stroke-width:0.140354"
         id="use3500"
         cx="155.63739"
         cy="81.099442"
         rx="7.698411"
         ry="7.9768634"
         inkscape:tile-x0="66.273119"
         inkscape:tile-y0="143.98933" />
      <ellipse
         style="fill:#ff7f2a;fill-opacity:1;stroke:#000000;stroke-width:0.140354"
         id="use3502"
         cx="155.63739"
         cy="97.199615"
         rx="7.698411"
         ry="7.9768634"
         inkscape:tile-x0="66.273119"
         inkscape:tile-y0="143.98933" />
      <ellipse
         style="fill:#ff7f2a;fill-opacity:1;stroke:#000000;stroke-width:0.140354"
         id="use3506"
         cx="155.63739"
         cy="129.39995"
         rx="7.698411"
         ry="7.9768634"
         inkscape:tile-x0="66.273119"
         inkscape:tile-y0="143.98933" />
      <ellipse
         style="fill:#ff7f2a;fill-opacity:1;stroke:#000000;stroke-width:0.140354"
         id="use3510"
         cx="155.63739"
         cy="161.6003"
         rx="7.698411"
         ry="7.9768634"
         inkscape:tile-x0="66.273119"
         inkscape:tile-y0="143.98933" />
      <ellipse
         style="fill:#ff7f2a;fill-opacity:1;stroke:#000000;stroke-width:0.140354"
         id="use3512"
         cx="155.63739"
         cy="177.70047"
         rx="7.698411"
         ry="7.9768634"
         inkscape:tile-x0="66.273119"
         inkscape:tile-y0="143.98933" />
      <ellipse
         style="fill:#ff7f2a;fill-opacity:1;stroke:#000000;stroke-width:0.140354"
         id="use3514"
         cx="155.63739"
         cy="193.80063"
         rx="7.698411"
         ry="7.9768634"
         inkscape:tile-x0="66.273119"
         inkscape:tile-y0="143.98933" />
      <ellipse
         style="fill:#ff7f2a;fill-opacity:1;stroke:#000000;stroke-width:0.140354"
         id="use3516"
         cx="155.63739"
         cy="209.9008"
         rx="7.698411"
         ry="7.9768634"
         inkscape:tile-x0="66.273119"
         inkscape:tile-y0="143.98933" />
      <ellipse
         style="fill:#ff7f2a;fill-opacity:1;stroke:#000000;stroke-width:0.140354"
         id="use3524"
         cx="171.16873"
         cy="97.199615"
         rx="7.698411"
         ry="7.9768634"
         inkscape:tile-x0="66.273119"
         inkscape:tile-y0="143.98933" />
      <ellipse
         style="fill:#ff7f2a;fill-opacity:1;stroke:#000000;stroke-width:0.140354"
         id="use3528"
         cx="171.16873"
         cy="129.39995"
         rx="7.698411"
         ry="7.9768634"
         inkscape:tile-x0="66.273119"
         inkscape:tile-y0="143.98933" />
      <ellipse
         style="fill:#ff7f2a;fill-opacity:1;stroke:#000000;stroke-width:0.140354"
         id="use3532"
         cx="171.16873"
         cy="161.6003"
         rx="7.698411"
         ry="7.9768634"
         inkscape:tile-x0="66.273119"
         inkscape:tile-y0="143.98933" />
      <ellipse
         style="fill:#ff7f2a;fill-opacity:1;stroke:#000000;stroke-width:0.140354"
         id="use3540"
         cx="186.70007"
         cy="48.899113"
         rx="7.698411"
         ry="7.9768634"
         inkscape:tile-x0="66.273119"
         inkscape:tile-y0="143.98933" />
      <ellipse
         style="fill:#ff7f2a;fill-opacity:1;stroke:#000000;stroke-width:0.140354"
         id="use3542"
         cx="186.70007"
         cy="64.999283"
         rx="7.698411"
         ry="7.9768634"
         inkscape:tile-x0="66.273119"
         inkscape:tile-y0="143.98933" />
      <ellipse
         style="fill:#ff7f2a;fill-opacity:1;stroke:#000000;stroke-width:0.140354"
         id="use3546"
         cx="186.70007"
         cy="97.199615"
         rx="7.698411"
         ry="7.9768634"
         inkscape:tile-x0="66.273119"
         inkscape:tile-y0="143.98933" />
      <ellipse
         style="fill:#ff7f2a;fill-opacity:1;stroke:#000000;stroke-width:0.140354"
         id="use3550"
         cx="186.70007"
         cy="129.39995"
         rx="7.698411"
         ry="7.9768634"
         inkscape:tile-x0="66.273119"
         inkscape:tile-y0="143.98933" />
      <ellipse
         style="fill:#ff7f2a;fill-opacity:1;stroke:#000000;stroke-width:0.140354;stroke-opacity:1"
         id="use3554"
         cx="186.70007"
         cy="161.6003"
         rx="7.698411"
         ry="7.9768634"
         inkscape:tile-x0="66.273119"
         inkscape:tile-y0="143.98933" />
      <ellipse
         style="fill:#ff7f2a;fill-opacity:1;stroke:#000000;stroke-width:0.140354"
         id="use3562"
         cx="202.23141"
         cy="48.899113"
         rx="7.698411"
         ry="7.9768634"
         inkscape:tile-x0="66.273119"
         inkscape:tile-y0="143.98933" />
      <ellipse
         style="fill:#ff7f2a;fill-opacity:1;stroke:#000000;stroke-width:0.140354"
         id="use3564"
         cx="202.23141"
         cy="64.999283"
         rx="7.698411"
         ry="7.9768634"
         inkscape:tile-x0="66.273119"
         inkscape:tile-y0="143.98933" />
      <ellipse
         style="fill:#ff7f2a;fill-opacity:1;stroke:#000000;stroke-width:0.140354"
         id="use3568"
         cx="202.23141"
         cy="97.199615"
         rx="7.698411"
         ry="7.9768634"
         inkscape:tile-x0="66.273119"
         inkscape:tile-y0="143.98933" />
      <ellipse
         style="fill:#ff7f2a;fill-opacity:1;stroke:#000000;stroke-width:0.140354"
         id="use3570"
         cx="202.23141"
         cy="113.29978"
         rx="7.698411"
         ry="7.9768634"
         inkscape:tile-x0="66.273119"
         inkscape:tile-y0="143.98933" />
      <ellipse
         style="fill:#ff7f2a;fill-opacity:1;stroke:#000000;stroke-width:0.140354"
         id="use3572"
         cx="202.23141"
         cy="129.39995"
         rx="7.698411"
         ry="7.9768634"
         inkscape:tile-x0="66.273119"
         inkscape:tile-y0="143.98933" />
      <ellipse
         style="fill:#ff7f2a;fill-opacity:1;stroke:#000000;stroke-width:0.140354"
         id="use3574"
         cx="202.23141"
         cy="145.50012"
         rx="7.698411"
         ry="7.9768634"
         inkscape:tile-x0="66.273119"
         inkscape:tile-y0="143.98933" />
      <ellipse
         style="fill:#ff7f2a;fill-opacity:1;stroke:#000000;stroke-width:0.140354"
         id="use3576"
         cx="202.23141"
         cy="161.6003"
         rx="7.698411"
         ry="7.9768634"
         inkscape:tile-x0="66.273119"
         inkscape:tile-y0="143.98933" />
      <path
         style="fill:#0505ad;fill-opacity:1;stroke:#000000;stroke-width:1.37902;stroke-opacity:1"
         d="m 168.42934,273.16661 c -22.7124,-8.40697 -25.44998,-41.86388 -4.32634,-52.87372 14.24015,-7.42209 30.65887,-2.16735 37.96298,12.14989 3.35563,6.57757 3.60902,19.00185 0.52029,25.51086 -6.23099,13.13084 -21.45892,19.91313 -34.15693,15.21297 z"
         id="path4386"
         transform="scale(0.26458333)" />
      <path
         style="fill:#0505ad;fill-opacity:1;stroke:#000000;stroke-width:1.37902;stroke-opacity:1"
         d="m 169.93412,212.60736 c -21.69752,-6.74907 -27.46987,-35.78711 -9.97983,-50.20388 18.52377,-15.26886 44.82971,-2.14149 44.82971,22.37123 0,12.95309 -8.64691,24.9636 -20.30281,28.20047 -6.30351,1.7505 -7.86375,1.71105 -14.54707,-0.36782 z"
         id="path4388"
         transform="scale(0.26458333)" />
      <path
         style="fill:#0505ad;fill-opacity:1;stroke:#000000;stroke-width:1.37902;stroke-opacity:1"
         d="m 229.28091,213.12435 c -10.53799,-3.34157 -18.78764,-12.44027 -21.03032,-23.19474 -3.43161,-16.45581 10.84112,-34.03998 27.56128,-33.95585 23.81347,0.11982 36.43015,27.38591 21.79394,47.0992 -5.88813,7.93062 -19.63214,12.80783 -28.3249,10.05139 z"
         id="path4390"
         transform="scale(0.26458333)" />
      <path
         style="fill:#0505ad;fill-opacity:1;stroke:#000000;stroke-width:1.37902;stroke-opacity:1"
         d="m 224.44895,271.80508 c -12.96033,-6.18163 -19.09627,-20.17171 -15.01084,-34.22509 4.00027,-13.76043 17.96466,-22.80515 31.41273,-20.346 19.39806,3.54718 29.45959,27.6314 18.47673,44.22762 -8.14831,12.31293 -22.08454,16.4458 -34.87862,10.34347 z"
         id="path4392"
         transform="scale(0.26458333)" />
      <path
         style="fill:#0505ad;fill-opacity:1;stroke:#000000;stroke-width:1.37902;stroke-opacity:1"
         d="m 165.07778,392.96196 c -19.15472,-9.69816 -20.9719,-37.04332 -3.28933,-49.49826 12.23626,-8.61877 29.36098,-5.37852 38.10882,7.21075 5.81821,8.37316 6.59029,21.62578 1.78409,30.6237 -7.40387,13.86114 -22.66121,18.72292 -36.60358,11.66381 z"
         id="path4394"
         transform="scale(0.26458333)" />
      <path
         style="fill:#0505ad;fill-opacity:1;stroke:#000000;stroke-width:1.37902;stroke-opacity:1"
         d="m 223.87239,515.11113 c -19.67328,-10.69408 -21.10329,-38.26167 -2.61926,-50.49382 23.75224,-15.71849 52.3053,11.58043 39.33539,37.60765 -4.93103,9.89528 -12.21391,14.67059 -23.19883,15.21123 -6.42663,0.31629 -9.69116,-0.24522 -13.5173,-2.32506 z"
         id="path4396"
         transform="scale(0.26458333)" />
      <path
         style="fill:#0505ad;fill-opacity:1;stroke:#000000;stroke-width:1.37902;stroke-opacity:1"
         d="m 284.96715,516.34534 c -10.49333,-4.20284 -18.11533,-15.78691 -18.08364,-27.48388 0.06,-22.15711 24.70034,-36.21191 42.65478,-24.33022 18.54439,12.2721 16.87624,40.47422 -2.99687,50.66574 -5.47327,2.80686 -16.03045,3.3688 -21.57427,1.14836 z"
         id="path4398"
         transform="scale(0.26458333)" />
      <path
         style="fill:#0000ff;fill-opacity:1;stroke:#000000;stroke-width:1.37902;stroke-opacity:1"
         d="m 341.99617,515.60685 c -15.4617,-8.44068 -21.02864,-26.64483 -12.56476,-41.08736 11.78831,-20.11523 39.64129,-18.64136 49.2949,2.6085 5.55395,12.22555 0.98892,28.86416 -9.8955,36.06713 -7.24166,4.7923 -20.32067,5.96776 -26.83464,2.41173 z"
         id="path4400"
         transform="scale(0.26458333)" />
      <path
         style="fill:#ff0000;fill-opacity:1;stroke:#000000;stroke-width:1.37902;stroke-opacity:1"
         d="m 518.51032,515.90723 c -8.95397,-3.90799 -17.20639,-16.78509 -17.23002,-26.88578 -0.035,-14.93972 13.69704,-29.05877 28.26216,-29.05877 14.56511,0 28.2971,14.11905 28.26215,29.05877 -0.024,10.27752 -8.37246,23.10775 -17.53048,26.94165 -5.58065,2.33627 -16.34626,2.30864 -21.76381,-0.0559 z"
         id="path4609"
         transform="scale(0.26458333)" />
      <path
         style="fill:#ff0000;fill-opacity:1;stroke:#000000;stroke-width:1.37902;stroke-opacity:1"
         d="m 634.8194,515.034 c -19.65079,-10.38137 -21.09549,-38.1897 -2.61926,-50.41669 18.59876,-12.30808 42.90006,2.24362 42.79061,25.62317 -0.0458,9.77494 -8.22111,21.78318 -17.50019,25.70487 -6.28914,2.65803 -16.70746,2.23923 -22.67116,-0.91135 z"
         id="path4611"
         transform="scale(0.26458333)" />
      <path
         style="fill:#ff0000;fill-opacity:1;stroke:#000000;stroke-width:1.37902;stroke-opacity:1"
         d="m 695.75519,516.28653 c -19.7363,-7.87669 -24.11383,-34.82767 -7.96056,-49.01043 13.55063,-11.89761 32.57028,-8.60639 41.85887,7.24339 11.02653,18.81535 -2.6155,43.4954 -23.88671,43.21391 -3.6329,-0.0481 -8.13812,-0.69916 -10.0116,-1.44687 z"
         id="path4613"
         transform="scale(0.26458333)" />
      <path
         style="fill:#ff0000;fill-opacity:1;stroke:#000000;stroke-width:1.37902;stroke-opacity:1"
         d="m 575.61166,514.61215 c -3.34274,-1.76476 -7.92062,-5.82513 -10.17305,-9.02304 -3.36625,-4.77926 -4.17562,-7.46094 -4.54634,-15.06331 -0.4013,-8.22923 0.006,-10.03027 3.69109,-16.33578 3.20859,-5.48967 5.7705,-7.89831 11.36744,-10.68738 10.70689,-5.33547 19.95234,-4.41911 29.71292,2.94501 10.97164,8.27782 13.46414,27.39418 5.11982,39.26669 -8.35612,11.88932 -22.65409,15.50643 -35.17188,8.89781 z"
         id="path4615"
         transform="scale(0.26458333)" />
      <path
         style="fill:#ff0000;fill-opacity:1;stroke:#000000;stroke-width:1.37902;stroke-opacity:1"
         d="m 756.15422,638.37572 c -8.46648,-2.60193 -16.81775,-11.87838 -19.04247,-21.15204 -4.85726,-20.24735 14.43827,-39.97718 33.95703,-34.72132 7.63942,2.05708 16.33961,9.92949 19.1731,17.34887 8.58077,22.46843 -11.71097,45.40132 -34.08766,38.52449 z"
         id="path4617"
         transform="scale(0.26458333)" />
      <path
         style="fill:#ff0000;fill-opacity:1;stroke:#000000;stroke-width:1.37902;stroke-opacity:1"
         d="m 696.57554,759.88086 c -17.18904,-6.12701 -24.32899,-28.85437 -13.78352,-43.87472 10.69333,-15.23095 31.05984,-16.58764 43.1318,-2.87317 13.03012,14.80299 8.9095,36.5691 -8.57224,45.28062 -7.84556,3.90961 -12.91898,4.26791 -20.77604,1.46727 z"
         id="path4619"
         transform="scale(0.26458333)" />
      <path
         style="fill:#ff0000;fill-opacity:1;stroke:#000000;stroke-width:1.37902;stroke-opacity:1"
         d="m 695.02447,819.9691 c -20.99885,-9.72215 -23.35389,-37.90193 -4.24735,-50.82247 21.5156,-14.54963 48.98861,7.03993 41.41434,32.54529 -4.90766,16.52587 -22.38554,25.12077 -37.16699,18.27718 z"
         id="path4621"
         transform="scale(0.26458333)" />
      <path
         style="fill:#ff0000;fill-opacity:1;stroke:#000000;stroke-width:1.37902;stroke-opacity:1"
         d="m 755.70121,820.89902 c -16.17753,-5.73568 -24.11181,-25.43106 -16.26526,-40.3755 5.89147,-11.22083 14.8837,-16.43975 26.83614,-15.57518 14.2587,1.03138 24.23864,11.1104 25.66127,25.91603 1.94843,20.2777 -17.73369,36.5932 -36.23215,30.03465 z"
         id="path4623"
         transform="scale(0.26458333)" />
      <path
         style="fill:#ff0000;fill-opacity:1;stroke:#000000;stroke-width:1.37902;stroke-opacity:1"
         d="m 752.43183,758.28975 c -17.44887,-8.69514 -21.41221,-30.28748 -8.29471,-45.18975 12.04231,-13.68078 32.42217,-12.3067 43.10278,2.90614 13.11372,18.67841 -1.10875,45.8429 -24.02809,45.89296 -1.93684,0.004 -6.78783,-1.61998 -10.77998,-3.60935 z"
         id="path4625"
         transform="scale(0.26458333)" />
      <path
         style="fill:#782121;fill-opacity:1;stroke:#000000;stroke-width:1.37902;stroke-opacity:1"
         d="m 344.7542,820.89902 c -11.63167,-4.12397 -19.08323,-14.71552 -19.06492,-27.09868 0.0249,-16.88539 12.00524,-29.13552 28.49371,-29.13552 14.6863,0 27.15038,12.95056 27.08487,28.14199 -0.0861,19.96706 -18.80684,34.37008 -36.51366,28.09221 z"
         id="path4765"
         transform="scale(0.26458333)" />
      <path
         style="fill:#782121;fill-opacity:1;stroke:#000000;stroke-width:1.37902;stroke-opacity:1"
         d="m 341.48482,758.28975 c -17.44887,-8.69514 -21.41221,-30.28748 -8.29471,-45.18975 12.04231,-13.68078 32.42217,-12.3067 43.10278,2.90614 13.11372,18.67841 -1.10875,45.8429 -24.02809,45.89296 -1.93684,0.004 -6.78783,-1.61998 -10.77998,-3.60935 z"
         id="path4767"
         transform="scale(0.26458333)" />
      <path
         style="fill:#782121;fill-opacity:1;stroke:#000000;stroke-width:1.37902;stroke-opacity:1"
         d="m 345.00767,699.23211 c -9.38234,-3.34616 -15.2547,-9.70241 -18.28934,-19.79638 -1.85068,-6.1558 -1.93218,-8.42715 -0.51448,-14.3368 1.79402,-7.47831 8.62804,-16.41378 14.99918,-19.61139 18.33058,-9.19994 40.15883,5.06585 40.06483,26.18428 -0.059,13.25224 -8.9714,24.91978 -21.43205,28.05741 -7.38597,1.85981 -8.30602,1.82896 -14.82814,-0.49712 z"
         id="path4769"
         transform="scale(0.26458333)" />
      <path
         style="fill:#782121;fill-opacity:1;stroke:#000000;stroke-width:1.37902;stroke-opacity:1"
         d="m 345.20721,638.37572 c -8.46648,-2.60193 -16.81775,-11.87838 -19.04247,-21.15204 -4.90465,-20.4449 14.44507,-39.97535 34.30673,-34.62716 7.60425,2.04761 15.94297,9.71241 18.8513,17.32778 8.55324,22.39634 -11.78127,45.31522 -34.11556,38.45142 z"
         id="path4771"
         transform="scale(0.26458333)" />
      <path
         style="fill:#782121;fill-opacity:1;stroke:#000000;stroke-width:1.37902;stroke-opacity:1"
         d="m 289.37322,639.23275 c -22.8468,-5.44376 -30.29496,-34.49546 -12.87793,-50.2307 15.98026,-14.43721 39.75858,-6.327 45.49669,15.51781 3.59433,13.68353 -5.73956,29.81081 -19.64309,33.93971 -3.8777,1.15156 -7.40316,2.03022 -7.83434,1.95258 -0.43118,-0.0776 -2.74478,-0.60836 -5.14133,-1.1794 z"
         id="path4773"
         transform="scale(0.26458333)" />
      <path
         style="fill:#782121;fill-opacity:1;stroke:#000000;stroke-width:1.37902;stroke-opacity:1"
         d="m 229.9856,639.21078 c -9.31443,-2.2055 -17.2144,-9.82693 -20.52848,-19.80467 -6.96159,-20.95939 12.82904,-42.48898 33.68855,-36.64867 12.04744,3.37307 20.95971,15.67079 20.89807,28.83652 -0.0245,5.22736 -4.21229,15.62065 -7.96719,19.77293 -5.48722,6.06791 -17.86971,9.79054 -26.09095,7.84389 z"
         id="path4775"
         transform="scale(0.26458333)" />
      <path
         style="fill:#782121;fill-opacity:1;stroke:#000000;stroke-width:1.37902;stroke-opacity:1"
         d="m 169.93412,638.76697 c -21.65038,-6.91511 -27.38397,-35.14004 -10.20275,-50.22535 12.50517,-10.97969 28.54403,-8.75844 40.05737,5.5476 3.58607,4.45591 4.30421,6.66188 4.75271,14.59928 0.42076,7.44634 -0.05,10.48392 -2.31212,14.91798 -6.35339,12.45367 -20.28866,18.99537 -32.29521,15.16049 z"
         id="path4777"
         transform="scale(0.26458333)" />
      <path
         style="fill:#782121;fill-opacity:1;stroke:#000000;stroke-width:1.37902;stroke-opacity:1"
         d="m 164.66465,514.61215 c -9.07297,-4.78996 -14.09715,-12.77191 -14.77896,-23.47942 -0.43466,-6.82624 0.0548,-9.89785 2.26849,-14.23712 14.19827,-27.83091 52.62982,-18.72522 52.62982,12.46972 0,21.77166 -21.30577,35.17923 -40.11935,25.24682 z"
         id="path4779"
         transform="scale(0.26458333)" />
      <path
         style="fill:#782121;fill-opacity:1;stroke:#000000;stroke-width:1.37902;stroke-opacity:1"
         d="m 164.79251,454.04402 c -9.47779,-5.06647 -14.28625,-12.88046 -14.88874,-24.19496 -0.61013,-11.45811 3.16523,-19.56707 12.01061,-25.79713 5.13859,-3.61926 7.0522,-4.13705 15.28928,-4.13705 8.23709,0 10.15069,0.51779 15.28928,4.13705 22.09859,15.56469 13.00552,50.95381 -13.55836,52.76748 -6.42451,0.43864 -9.11873,-0.0901 -14.14207,-2.77539 z"
         id="path4781"
         transform="scale(0.26458333)" />
      <path
         style="fill:#782121;fill-opacity:1;stroke:#000000;stroke-width:1.37902;stroke-opacity:1"
         d="m 164.16036,575.36038 c -8.60021,-4.87114 -13.6117,-13.13931 -14.27467,-23.55091 -0.43275,-6.79625 0.0546,-9.88829 2.22344,-14.10655 5.22758,-10.16737 15.57443,-17.12407 25.46898,-17.12407 7.0699,0 18.04091,6.15081 22.53305,12.63297 5.0396,7.27214 6.31472,21.50459 2.58678,28.87273 -7.59277,15.00686 -24.93415,20.98079 -38.53758,13.27583 z"
         id="path4783"
         transform="scale(0.26458333)" />
      <path
         style="fill:#782121;fill-opacity:1;stroke:#000000;stroke-width:1.37902;stroke-opacity:1"
         d="m 225.47909,394.27058 c -17.44147,-7.56359 -22.93473,-30.51535 -10.8209,-45.21153 13.68201,-16.59865 37.716,-13.14628 46.83258,6.72729 10.45445,22.79003 -13.40505,48.28774 -36.01168,38.48424 z"
         id="path4785"
         transform="scale(0.26458333)" />
      <path
         style="fill:#782121;fill-opacity:1;stroke:#000000;stroke-width:1.37902;stroke-opacity:1"
         d="m 284.07746,393.93011 c -15.62307,-7.45192 -21.39828,-24.42652 -13.62067,-40.03414 4.77525,-9.58267 11.81504,-14.30136 22.48788,-15.07337 16.64106,-1.2037 29.47808,11.35381 29.50396,28.86155 0.0299,20.21528 -20.94136,34.55966 -38.37117,26.24596 z"
         id="path4787"
         transform="scale(0.26458333)" />
      <path
         style="fill:#782121;fill-opacity:1;stroke:#000000;stroke-width:1.37902;stroke-opacity:1"
         d="m 344.26487,394.99186 c -19.28715,-7.72499 -24.81745,-32.45173 -10.72625,-47.95858 8.49961,-9.35351 24.26052,-11.15938 35.05418,-4.01647 11.00464,7.28253 15.69395,24.11084 10.09092,36.21281 -6.14338,13.26908 -22.23952,20.64037 -34.41885,15.76224 z"
         id="path4789"
         transform="scale(0.26458333)" />
      <path
         style="fill:#782121;fill-opacity:1;stroke:#000000;stroke-width:1.37902;stroke-opacity:1"
         d="m 344.7542,334.10608 c -11.63167,-4.12396 -19.08323,-14.71552 -19.06492,-27.09867 0.0249,-16.88539 12.00524,-29.13552 28.49371,-29.13552 14.6863,0 27.15038,12.95055 27.08487,28.14199 -0.0861,19.96706 -18.80684,34.37008 -36.51366,28.0922 z"
         id="path4791"
         transform="scale(0.26458333)" />
      <path
         style="fill:#782121;fill-opacity:1;stroke:#000000;stroke-width:1.37902;stroke-opacity:1"
         d="m 341.73333,271.62065 c -7.9124,-3.94291 -13.18717,-10.63343 -15.5874,-19.77107 -3.66361,-13.94726 6.06961,-30.32118 20.19332,-33.97068 28.58439,-7.38606 47.45361,29.47707 25.32281,49.47092 -9.18852,8.30128 -19.02414,9.70482 -29.92873,4.27083 z"
         id="path4793"
         transform="scale(0.26458333)" />
      <path
         style="fill:#782121;fill-opacity:1;stroke:#000000;stroke-width:1.37902;stroke-opacity:1"
         d="m 346.33795,213.02138 c -9.96503,-2.98691 -17.52217,-11.29194 -20.24718,-22.25091 -3.45138,-13.88015 6.59099,-30.4443 20.77271,-34.26304 11.98227,-3.22649 25.72427,3.57373 31.55281,15.61388 7.84513,16.20589 -1.38694,36.4856 -18.58048,40.81499 -6.7914,1.71009 -8.05,1.71802 -13.49786,0.0851 z"
         id="path4795"
         transform="scale(0.26458333)" />
      <path
         style="fill:#782121;fill-opacity:1;stroke:#000000;stroke-width:1.37902;stroke-opacity:1"
         d="m 462.15992,212.41711 c -11.27839,-4.02063 -18.80601,-15.08527 -18.80601,-27.6424 0,-24.51272 26.30594,-37.64009 44.82971,-22.37123 17.87442,14.73361 11.22882,44.90245 -11.13139,50.53282 -7.39526,1.86214 -8.30094,1.83057 -14.89231,-0.51919 z"
         id="path4797"
         transform="scale(0.26458333)" />
      <path
         style="fill:#782121;fill-opacity:1;stroke:#000000;stroke-width:1.37902;stroke-opacity:1"
         d="m 406.11152,213.20898 c -10.50851,-3.37999 -17.291,-9.77586 -20.48587,-19.31814 -8.25031,-24.64155 18.13918,-47.09657 40.17325,-34.18374 18.63947,10.92346 18.9925,39.03248 0.6254,49.79556 -6.51441,3.81743 -15.09801,5.38362 -20.31278,3.70632 z"
         id="path4799"
         transform="scale(0.26458333)" />
      <path
         style="fill:#782121;fill-opacity:1;stroke:#000000;stroke-width:1.37902;stroke-opacity:1"
         d="m 521.3481,212.44182 c -8.19779,-3.01437 -12.09282,-6.5042 -16.40579,-14.69903 -3.19936,-6.07895 -3.81175,-8.72526 -3.35061,-14.47902 1.2296,-15.3419 13.54793,-27.33637 28.07445,-27.33637 15.45444,0 29.07071,14.86808 27.82706,30.38534 -1.49319,18.63075 -20.05184,32.04668 -36.14511,26.12908 z"
         id="path4801"
         transform="scale(0.26458333)" />
      <path
         style="fill:#782121;fill-opacity:1;stroke:#000000;stroke-width:1.37902;stroke-opacity:1"
         d="m 579.37635,273.09385 c -15.11602,-5.3887 -23.00823,-23.86571 -16.67167,-39.03122 9.21303,-22.04988 39.38999,-23.02153 50.30831,-1.61985 3.60467,7.06572 3.62352,18.94174 0.0412,25.96362 -3.49687,6.85445 -11.10426,13.43442 -17.62601,15.24552 -6.71003,1.86339 -9.53485,1.76518 -16.05186,-0.55807 z"
         id="path4803"
         transform="scale(0.26458333)" />
      <path
         style="fill:#782121;fill-opacity:1;stroke:#000000;stroke-width:1.37902;stroke-opacity:1"
         d="m 578.49755,333.59202 c -6.31838,-2.7368 -11.99638,-8.22509 -15.44141,-14.9255 -2.16883,-4.21826 -2.65619,-7.31029 -2.22344,-14.10655 1.86521,-29.29246 39.03252,-37.05601 52.41737,-10.94898 2.17703,4.24628 2.6553,7.36837 2.24395,14.64826 -0.66916,11.8426 -5.23934,18.99537 -15.35887,24.03814 -7.92794,3.95066 -14.58598,4.34903 -21.6376,1.29463 z"
         id="path4805"
         transform="scale(0.26458333)" />
      <path
         style="fill:#782121;fill-opacity:1;stroke:#000000;stroke-width:1.37902;stroke-opacity:1"
         d="m 578.70873,394.66099 c -10.75423,-4.06615 -18.1384,-15.25708 -18.1384,-27.48928 0,-27.6945 34.60323,-39.04945 50.27395,-16.49726 5.81821,8.37316 6.59029,21.62578 1.78409,30.6237 -6.50308,12.17472 -21.46872,18.07052 -33.91964,13.36284 z"
         id="path4807"
         transform="scale(0.26458333)" />
      <path
         style="fill:#782121;fill-opacity:1;stroke:#000000;stroke-width:1.37902;stroke-opacity:1"
         d="m 636.4261,394.27058 c -17.44147,-7.56359 -22.93473,-30.51535 -10.8209,-45.21153 7.6277,-9.25372 20.53885,-13.01412 31.06178,-9.04683 5.5203,2.08124 12.74983,9.32559 15.74182,15.77412 10.54151,22.71966 -13.36791,48.29128 -35.9827,38.48424 z"
         id="path4809"
         transform="scale(0.26458333)" />
      <path
         style="fill:#782121;fill-opacity:1;stroke:#000000;stroke-width:1.37902;stroke-opacity:1"
         d="m 695.02447,393.93011 c -15.41395,-7.35217 -21.22528,-24.00537 -13.88126,-39.77878 9.67983,-20.79024 38.64787,-20.74049 49.32503,0.0847 11.90317,23.21648 -12.55751,50.61041 -35.44377,39.69408 z"
         id="path4811"
         transform="scale(0.26458333)" />
      <path
         style="fill:#782121;fill-opacity:1;stroke:#000000;stroke-width:1.37902;stroke-opacity:1"
         d="m 755.05291,394.93305 c -23.5954,-9.41685 -24.94657,-42.25664 -2.21806,-53.90924 7.51553,-3.8531 19.18716,-2.98205 26.70496,1.993 7.00155,4.63341 12.71737,15.64434 12.67506,24.41718 -0.0924,19.16764 -20.39465,34.19084 -37.16196,27.49906 z"
         id="path4813"
         transform="scale(0.26458333)" />
      <path
         style="fill:#782121;fill-opacity:1;stroke:#000000;stroke-width:1.37902;stroke-opacity:1"
         d="m 753.64253,455.02311 c -22.9208,-10.30038 -22.72625,-44.03847 0.30944,-53.6634 5.74596,-2.40082 14.36018,-2.77657 19.43349,-0.8477 5.50797,2.09412 13.59208,10.00521 16.28786,15.93924 5.5265,12.16513 1.03455,28.33067 -9.99648,35.97518 -6.88698,4.77268 -18.59388,5.94033 -26.03431,2.59668 z"
         id="path4815"
         transform="scale(0.26458333)" />
      <path
         style="fill:#782121;fill-opacity:1;stroke:#000000;stroke-width:1.37902;stroke-opacity:1"
         d="m 752.94318,515.60685 c -20.35392,-11.11138 -22.18473,-38.64219 -3.39655,-51.07561 17.98537,-11.90216 42.56093,2.1539 42.66824,24.40421 0.0424,8.79445 -5.67247,19.78309 -12.71111,24.44104 -6.96483,4.6091 -20.17168,5.71811 -26.56058,2.23036 z"
         id="path4817"
         transform="scale(0.26458333)" />
      <path
         style="fill:#782121;fill-opacity:1;stroke:#000000;stroke-width:1.37902;stroke-opacity:1"
         d="m 752.53014,576.19231 c -6.47427,-3.19074 -13.52026,-11.99439 -15.31994,-19.14158 -5.32348,-21.14144 15.16936,-41.65051 35.05868,-35.08644 22.65203,7.47584 26.81791,38.59313 6.96847,52.05146 -5.54775,3.76149 -7.85947,4.47676 -14.38362,4.4504 -4.33063,-0.0175 -9.78873,-1.02457 -12.32359,-2.27384 z"
         id="path4819"
         transform="scale(0.26458333)" />
      <path
         style="fill:#782121;fill-opacity:1;stroke:#000000;stroke-width:1.37902;stroke-opacity:1"
         d="m 700.32023,639.23275 c -22.8468,-5.44376 -30.29496,-34.49546 -12.87793,-50.2307 15.86362,-14.33183 39.76443,-6.32596 45.41436,15.21209 3.63921,13.873 -5.63526,30.11 -19.56076,34.24543 -3.8777,1.15156 -7.40316,2.03022 -7.83434,1.95258 -0.43118,-0.0776 -2.74478,-0.60836 -5.14133,-1.1794 z"
         id="path4821"
         transform="scale(0.26458333)" />
      <path
         style="fill:#782121;fill-opacity:1;stroke:#000000;stroke-width:1.37902;stroke-opacity:1"
         d="m 640.8906,639.20219 c -13.7137,-3.24303 -23.98887,-18.50542 -21.77619,-32.3456 1.95238,-12.21202 11.71761,-22.35371 23.99158,-24.91648 7.26922,-1.5178 16.55344,1.7996 22.94149,8.19735 9.56918,9.58371 11.41664,21.67414 5.18895,33.95841 -5.82743,11.49477 -18.64216,17.87401 -30.34583,15.10632 z"
         id="path4823"
         transform="scale(0.26458333)" />
      <path
         style="fill:#782121;fill-opacity:1;stroke:#000000;stroke-width:1.37902;stroke-opacity:1"
         d="m 580.88113,638.76697 c -21.84984,-6.97882 -27.47774,-35.05771 -10.08711,-50.32688 4.48059,-3.93401 12.31288,-7.16912 17.35665,-7.16912 9.07774,0 20.18647,7.44584 24.90355,16.69207 3.57264,7.00297 3.56311,18.89853 -0.0208,25.92354 -6.21071,12.17399 -20.26339,18.6777 -32.15232,14.88039 z"
         id="path4825"
         transform="scale(0.26458333)" />
      <path
         style="fill:#782121;fill-opacity:1;stroke:#000000;stroke-width:1.37902;stroke-opacity:1"
         d="m 579.37635,699.21005 c -20.47919,-7.30062 -25.35881,-36.09662 -8.47505,-50.01364 18.3636,-15.13683 44.82971,-1.92953 44.82971,22.37123 0,12.9531 -8.64691,24.96361 -20.30281,28.20047 -6.71002,1.86339 -9.53484,1.76518 -16.05185,-0.55806 z"
         id="path4827"
         transform="scale(0.26458333)" />
      <path
         style="fill:#782121;fill-opacity:1;stroke:#000000;stroke-width:1.37902;stroke-opacity:1"
         d="m 579.37635,759.88679 c -15.11602,-5.38871 -23.00823,-23.86571 -16.67167,-39.03122 9.21303,-22.04989 39.38999,-23.02154 50.30831,-1.61985 3.36079,6.58767 3.60766,19.0047 0.50774,25.5373 -4.40283,9.27828 -16.57177,17.24732 -26.05957,17.06555 -1.51692,-0.0291 -5.15508,-0.90736 -8.08481,-1.95178 z"
         id="path4829"
         transform="scale(0.26458333)" />
      <path
         style="fill:#782121;fill-opacity:1;stroke:#000000;stroke-width:1.37902;stroke-opacity:1"
         d="m 578.49755,820.38496 c -6.31838,-2.7368 -11.99638,-8.2251 -15.44141,-14.9255 -2.16883,-4.21827 -2.65619,-7.3103 -2.22344,-14.10655 1.86521,-29.29247 39.03252,-37.05601 52.41737,-10.94899 2.17703,4.24628 2.6553,7.36838 2.24395,14.64827 -0.66916,11.84259 -5.23934,18.99537 -15.35887,24.03814 -7.92794,3.95066 -14.58598,4.34902 -21.6376,1.29463 z"
         id="path4831"
         transform="scale(0.26458333)" />
      <path
         style="fill:#782121;fill-opacity:1;stroke:#000000;stroke-width:1.37902;stroke-opacity:1"
         d="m 518.41277,819.97331 c -9.45549,-4.29459 -17.15656,-16.21049 -17.13247,-26.50913 0.024,-10.27752 8.37246,-23.10774 17.53048,-26.94164 5.6856,-2.38021 15.77775,-2.38021 21.46335,0 9.15802,3.8339 17.50644,16.66412 17.53048,26.94164 0.0242,10.34596 -7.19367,21.5028 -16.97423,26.23749 -7.31317,3.54024 -15.01556,3.63357 -22.41761,0.27164 z"
         id="path4833"
         transform="scale(0.26458333)" />
      <path
         style="fill:#782121;fill-opacity:1;stroke:#000000;stroke-width:1.37902;stroke-opacity:1"
         d="m 458.94976,819.09033 c -10.11953,-5.04277 -14.6897,-12.19555 -15.35887,-24.03814 -0.41135,-7.27989 0.0669,-10.40199 2.24395,-14.64827 5.27395,-10.28678 14.09713,-15.75142 25.37567,-15.71641 14.89038,0.0462 26.04725,11.04784 27.0417,26.6654 0.43275,6.79625 -0.0546,9.88828 -2.22344,14.10655 -5.22758,10.16736 -15.57443,17.12407 -25.46898,17.12407 -2.53005,0 -7.75456,-1.57194 -11.61003,-3.4932 z"
         id="path4835"
         transform="scale(0.26458333)" />
      <path
         style="fill:#782121;fill-opacity:1;stroke:#000000;stroke-width:1.37902;stroke-opacity:1"
         d="m 462.14269,759.88086 c -6.30632,-2.24788 -13.69226,-9.02552 -16.66701,-15.29434 -3.02109,-6.36647 -2.72783,-18.83509 0.59624,-25.3508 13.62339,-26.70406 52.55075,-16.80914 52.41237,13.32267 -0.0575,12.51385 -8.9463,24.74115 -20.27252,27.88646 -6.71332,1.86431 -9.53439,1.7653 -16.06908,-0.56399 z"
         id="path4837"
         transform="scale(0.26458333)" />
      <path
         style="fill:#782121;fill-opacity:1;stroke:#000000;stroke-width:1.37902;stroke-opacity:1"
         d="m 462.15992,699.21005 c -11.27839,-4.02063 -18.80601,-15.08527 -18.80601,-27.64241 0,-24.51271 26.30594,-37.64008 44.82971,-22.37123 17.11177,14.10497 12.08599,42.53427 -8.82345,49.91154 -7.26714,2.564 -10.24471,2.58168 -17.20025,0.10209 z"
         id="path4839"
         transform="scale(0.26458333)" />
      <path
         style="fill:#782121;fill-opacity:1;stroke:#000000;stroke-width:1.37902;stroke-opacity:1"
         d="m 463.6647,638.76697 c -7.19435,-2.29787 -14.25809,-8.30378 -17.69897,-15.04846 -2.32332,-4.55407 -2.7929,-7.53297 -2.36928,-15.03001 0.4485,-7.9374 1.16664,-10.14337 4.75271,-14.59928 2.3234,-2.88697 6.19803,-6.59319 8.61028,-8.23604 17.38385,-11.83917 41.49457,2.71706 41.49457,25.05127 0,18.96536 -17.86037,33.2696 -34.78931,27.86252 z"
         id="path4841"
         transform="scale(0.26458333)" />
      <path
         style="fill:#782121;fill-opacity:1;stroke:#000000;stroke-width:1.37902;stroke-opacity:1"
         d="m 459.2126,576.20613 c -11.4587,-6.04087 -16.36893,-14.872 -15.62171,-28.09594 0.41757,-7.39006 1.3102,-10.38805 4.43585,-14.89837 4.49214,-6.48216 15.46315,-12.63297 22.53305,-12.63297 9.89455,0 20.2414,6.9567 25.46898,17.12407 4.16148,8.09386 3.06965,20.81808 -2.46166,28.68816 -5.71843,8.13634 -13.1188,12.06938 -22.63287,12.02857 -4.19059,-0.018 -9.43586,-1.00849 -11.72164,-2.21352 z"
         id="path4843"
         transform="scale(0.26458333)" />
      <path
         style="fill:#782121;fill-opacity:1;stroke:#000000;stroke-width:1.37902;stroke-opacity:1"
         d="m 401.28206,820.09694 c -15.34148,-7.20609 -21.27855,-24.69368 -13.60884,-40.08477 4.78152,-9.59527 11.81235,-14.30117 22.52422,-15.076 28.88439,-2.08931 41.22213,36.6958 16.81179,52.8498 -7.35326,4.86616 -18.21089,5.84146 -25.72717,2.31097 z"
         id="path4845"
         transform="scale(0.26458333)" />
      <path
         style="fill:#0000ff;fill-opacity:1;stroke:#000000;stroke-width:1.37902;stroke-opacity:1"
         d="m 401.29389,515.88953 c -5.68046,-2.50355 -11.62204,-8.71274 -14.64676,-15.30643 -11.52772,-25.1297 17.45961,-51.03958 40.23765,-35.96579 14.36878,9.50881 17.48162,29.48564 6.64338,42.6343 -7.93333,9.6245 -21.65358,13.30116 -32.23427,8.63792 z"
         id="path4847"
         transform="scale(0.26458333)" />
      <path
         style="fill:#00ff00;fill-opacity:1;stroke:#000000;stroke-width:1.37902;stroke-opacity:1"
         d="m 168.42934,759.95955 c -22.7124,-8.40697 -25.44998,-41.86388 -4.32634,-52.87372 14.24015,-7.4221 30.65887,-2.16736 37.96298,12.14989 3.35563,6.57757 3.60902,19.00184 0.52029,25.51086 -6.23099,13.13084 -21.45892,19.91312 -34.15693,15.21297 z"
         id="path4918"
         transform="scale(0.26458333)" />
      <path
         style="fill:#00ff00;fill-opacity:1;stroke:#000000;stroke-width:1.37902;stroke-opacity:1"
         d="m 167.55054,820.38496 c -6.31838,-2.7368 -11.99638,-8.2251 -15.44141,-14.9255 -2.16883,-4.21827 -2.65619,-7.3103 -2.22344,-14.10655 1.86521,-29.29247 39.03252,-37.05601 52.41737,-10.94899 2.17703,4.24628 2.6553,7.36838 2.24395,14.64827 -0.66916,11.84259 -5.23934,18.99537 -15.35887,24.03814 -7.92794,3.95066 -14.58598,4.34902 -21.6376,1.29463 z"
         id="path4920"
         transform="scale(0.26458333)" />
      <path
         style="fill:#00ff00;fill-opacity:1;stroke:#000000;stroke-width:1.37902;stroke-opacity:1"
         d="m 227.79286,821.18126 c -2.13508,-0.64086 -6.01929,-2.79542 -8.63158,-4.78791 -14.27042,-10.88458 -14.81256,-32.63053 -1.11412,-44.68839 13.97183,-12.29849 34.11511,-8.35356 42.41752,8.30721 11.47121,23.0197 -8.65348,48.37841 -32.67182,41.16909 z"
         id="path4922"
         transform="scale(0.26458333)" />
      <path
         style="fill:#00ff00;fill-opacity:1;stroke:#000000;stroke-width:1.37902;stroke-opacity:1"
         d="m 224.44895,758.59802 c -12.96033,-6.18163 -19.09627,-20.17171 -15.01084,-34.2251 4.00027,-13.76042 17.96466,-22.80515 31.41273,-20.346 19.39806,3.54719 29.45959,27.63141 18.47673,44.22762 -8.14831,12.31293 -22.08454,16.44581 -34.87862,10.34348 z"
         id="path4924"
         transform="scale(0.26458333)" />
    </g>
  </g>
</svg>
